<svg xmlns="http://www.w3.org/2000/svg" width="31" height="23" viewBox="0 0 31 23" fill="none">
  <path d="M15.5001 14.7857C17.2943 14.7857 18.7488 13.3147 18.7488 11.5C18.7488 9.68535 17.2943 8.21429 15.5001 8.21429C13.7059 8.21429 12.2514 9.68535 12.2514 11.5C12.2514 13.3147 13.7059 14.7857 15.5001 14.7857Z" fill="white"/>
  <path fillRule="evenodd" clipRule="evenodd" d="M0 11.5001C2.06985 4.83478 8.22668 0 15.5 0C22.7733 0 28.9301 4.83473 31 11.4999C28.9302 18.1652 22.7733 23 15.5 23C8.22668 23 2.06989 18.1653 0 11.5001ZM21.9975 11.5C21.9975 15.1293 19.0885 18.0714 15.5001 18.0714C11.9116 18.0714 9.00262 15.1293 9.00262 11.5C9.00262 7.8707 11.9116 4.92857 15.5001 4.92857C19.0885 4.92857 21.9975 7.8707 21.9975 11.5Z" fill="white"/>
</svg>