<svg width="34" height="35" viewBox="0 0 34 35" fill="none" xmlns="http://www.w3.org/2000/svg">
<g id="icon / heroicons / Solid / gift">
<g id="Icon">
<path fillRule="evenodd" clipRule="evenodd" d="M8.5 8.75C8.5 5.85051 10.7833 3.5 13.6 3.5C14.9062 3.5 16.0977 4.0055 17 4.83682C17.9023 4.0055 19.0938 3.5 20.4 3.5C23.2167 3.5 25.5 5.85051 25.5 8.75C25.5 9.36361 25.3977 9.95264 25.2098 10.5H27.2C29.0778 10.5 30.6 12.067 30.6 14C30.6 15.933 29.0778 17.5 27.2 17.5H18.7V15.75C18.7 14.7835 17.9389 14 17 14C16.0611 14 15.3 14.7835 15.3 15.75V17.5H6.8C4.92223 17.5 3.4 15.933 3.4 14C3.4 12.067 4.92223 10.5 6.8 10.5H8.7902C8.60226 9.95264 8.5 9.36361 8.5 8.75ZM15.3 10.5V8.75C15.3 7.7835 14.5389 7 13.6 7C12.6611 7 11.9 7.7835 11.9 8.75C11.9 9.7165 12.6611 10.5 13.6 10.5H15.3ZM20.4 10.5C21.3389 10.5 22.1 9.7165 22.1 8.75C22.1 7.7835 21.3389 7 20.4 7C19.4611 7 18.7 7.7835 18.7 8.75V10.5H20.4Z" fill="white"/>
<path d="M15.3 19.25H5.1V28C5.1 29.933 6.62223 31.5 8.5 31.5H15.3V19.25Z" fill="white"/>
<path d="M18.7 31.5H25.5C27.3778 31.5 28.9 29.933 28.9 28V19.25H18.7V31.5Z" fill="white"/>
</g>
</g>
</svg>
