<svg width="35" height="36" viewBox="0 0 35 36" fill="none" xmlns="http://www.w3.org/2000/svg">
<g id="icon / heroicons / Solid / speakerphone">
<path id="Icon" d="M31.5 5.4001C31.5 4.77626 31.186 4.1969 30.67 3.86893C30.1541 3.54096 29.5099 3.51114 28.9674 3.79013L15.3369 10.8001H8.75C5.85051 10.8001 3.5 13.2178 3.5 16.2001C3.5 19.1824 5.85051 21.6001 8.75 21.6001H9.23868L12.3398 31.1693C12.578 31.9043 13.2468 32.4001 14 32.4001H15.75C16.7165 32.4001 17.5 31.5942 17.5 30.6001V22.7126L28.9674 28.6101C29.5099 28.8891 30.1541 28.8592 30.67 28.5313C31.186 28.2033 31.5 27.6239 31.5 27.0001V5.4001Z" fill="white"/>
</g>
</svg>
