<svg width="40" height="38" viewBox="0 0 40 38" fill="none" xmlns="http://www.w3.org/2000/svg">
<g id="Spotify" clip-path="url(#clip0_95_406)">
<g id="Icons">
<g id="Color-">
<path id="Spotify_2" fillRule="evenodd" clipRule="evenodd" d="M31.8 16.91C25.4 13.3 14.7 12.92 8.60001 14.725C7.60001 15.01 6.6 14.44 6.3 13.585C6 12.635 6.6 11.685 7.5 11.4C14.6 9.40499 26.3 9.78501 33.7 13.965C34.6 14.44 34.9 15.58 34.4 16.435C33.9 17.1 32.7 17.385 31.8 16.91ZM31.6 22.23C31.1 22.895 30.2 23.18 29.5 22.705C24.1 19.57 15.9 18.62 9.6 20.52C8.8 20.71 7.9 20.33 7.7 19.57C7.5 18.81 7.9 17.955 8.7 17.765C16 15.675 25 16.72 31.2 20.33C31.8 20.615 32.1 21.565 31.6 22.23ZM29.2 27.455C28.8 28.025 28.1 28.215 27.5 27.835C22.8 25.08 16.9 24.51 9.9 26.03C9.2 26.22 8.6 25.745 8.4 25.175C8.2 24.51 8.7 23.94 9.3 23.75C16.9 22.135 23.5 22.8 28.7 25.84C29.4 26.125 29.5 26.885 29.2 27.455ZM20 0C9 0 0 8.55 0 19C0 29.45 9 38 20 38C31 38 40 29.45 40 19C40 8.55 31.1 0 20 0Z" fill="white"/>
</g>
</g>
</g>
<defs>
<clipPath id="clip0_95_406">
<rect width="40" height="38" fill="white"/>
</clipPath>
</defs>
</svg>
