<svg width="40" height="39" viewBox="0 0 40 39" fill="none" xmlns="http://www.w3.org/2000/svg">
<g id="icon / heroicons / Solid / star">
<path id="Icon" d="M18.0979 7.65775C18.6966 5.86119 21.3034 5.86119 21.9021 7.65775L24.0412 14.0768C24.309 14.8802 25.0769 15.4242 25.9433 15.4242H32.8657C34.8032 15.4242 35.6087 17.8414 34.0413 18.9518L28.441 22.9189C27.74 23.4155 27.4467 24.2956 27.7144 25.0991L29.8536 31.5181C30.4523 33.3146 28.3433 34.8086 26.7759 33.6982L21.1755 29.7311C20.4746 29.2345 19.5254 29.2345 18.8244 29.7311L13.2241 33.6982C11.6566 34.8086 9.54767 33.3146 10.1464 31.5181L12.2855 25.0991C12.5533 24.2956 12.2599 23.4155 11.559 22.9189L5.95863 18.9518C4.39121 17.8414 5.19676 15.4242 7.1342 15.4242H14.0566C14.9231 15.4242 15.691 14.8802 15.9587 14.0768L18.0979 7.65775Z" fill="white"/>
</g>
</svg>
